<?xml version="1.0" encoding="UTF-8" standalone="no"?>
<!-- Created with Inkscape (http://www.inkscape.org/) -->

<svg
   xmlns:dc="http://purl.org/dc/elements/1.1/"
   xmlns:cc="http://creativecommons.org/ns#"
   xmlns:rdf="http://www.w3.org/1999/02/22-rdf-syntax-ns#"
   xmlns:svg="http://www.w3.org/2000/svg"
   xmlns="http://www.w3.org/2000/svg"
   xmlns:sodipodi="http://sodipodi.sourceforge.net/DTD/sodipodi-0.dtd"
   xmlns:inkscape="http://www.inkscape.org/namespaces/inkscape"
   id="svg3444"
   version="1.1"
   inkscape:version="0.91 r13725"
   xml:space="preserve"
   width="1488.1875"
   height="1052.3625"
   viewBox="0 0 1488.1875 1052.3625"
   sodipodi:docname="lyre_white_background.svg"
   inkscape:export-filename="/home/CIT/kaiocb/workspace/groovelabs/lyre-logo/logo/lyre_white_bg.png"
   inkscape:export-xdpi="90"
   inkscape:export-ydpi="90"><metadata
     id="metadata3450"><rdf:RDF><cc:Work
         rdf:about=""><dc:format>image/svg+xml</dc:format><dc:type
           rdf:resource="http://purl.org/dc/dcmitype/StillImage" /></cc:Work></rdf:RDF></metadata><defs
     id="defs3448"><clipPath
       clipPathUnits="userSpaceOnUse"
       id="clipPath3460"><path
         d="m 0,841.89 1190.55,0 L 1190.55,0 0,0 0,841.89 Z"
         id="path3462"
         inkscape:connector-curvature="0" /></clipPath></defs><sodipodi:namedview
     pagecolor="#ffffff"
     bordercolor="#666666"
     borderopacity="1"
     objecttolerance="10"
     gridtolerance="10"
     guidetolerance="10"
     inkscape:pageopacity="0"
     inkscape:pageshadow="2"
     inkscape:window-width="1366"
     inkscape:window-height="705"
     id="namedview3446"
     showgrid="false"
     inkscape:zoom="0.36283851"
     inkscape:cx="661.21186"
     inkscape:cy="415.56344"
     inkscape:window-x="1360"
     inkscape:window-y="35"
     inkscape:window-maximized="1"
     inkscape:current-layer="g3452" /><g
     id="g3452"
     inkscape:groupmode="layer"
     inkscape:label="Logotipo_Lyra_02"
     transform="matrix(1.25,0,0,-1.25,0,1052.3625)"><path
       d="m 0,0 1190.55,0 0,841.89 L 0,841.89 0,0 Z"
       style="fill:#ffffff;fill-opacity:1;fill-rule:nonzero;stroke:none"
       id="path3454"
       inkscape:connector-curvature="0"
       inkscape:export-xdpi="90"
       inkscape:export-ydpi="90" /><g
       id="g3456"
       style="fill:#000000"
       inkscape:export-filename="/home/CIT/kaiocb/workspace/groovelabs/lyre-logo/logo/lyre.png"
       inkscape:export-xdpi="90"
       inkscape:export-ydpi="90"><g
         id="g3458"
         clip-path="url(#clipPath3460)"
         style="fill:#000000"><g
           id="g3464"
           transform="translate(614.3719,320.2875)"
           style="fill:#000000"><path
             d="m 0,0 c 0,-0.712 0.578,-1.289 1.29,-1.29 5.432,-0.008 10.787,-0.062 16.141,0.036 2.303,0.042 4.112,1.668 4.512,3.931 0.284,1.599 0.409,3.294 0.217,4.899 -0.411,3.443 -3.039,5.566 -6.546,5.57 -3.294,0.004 -6.589,10e-4 -9.884,10e-4 l -4.439,0 C 0.578,13.147 0,12.569 0,11.856 L 0,0 Z m -12.702,-35.683 0,58.914 c 0,0.712 0.578,1.29 1.291,1.29 l 0.075,0 c 9.676,0 19.353,0.008 29.028,-0.001 8.562,-0.009 15.254,-5.132 17.044,-13.51 1.327,-6.207 0.781,-12.26 -3.259,-17.573 -1.239,-1.628 -2.79,-2.82 -4.662,-3.713 -0.658,-0.314 -0.935,-1.102 -0.606,-1.752 3.903,-7.714 7.775,-15.365 11.723,-23.164 0.434,-0.859 -0.189,-1.875 -1.152,-1.875 l -1.961,0 c -2.915,0 -5.832,0.043 -8.745,-0.026 -0.904,-0.021 -1.328,0.308 -1.7,1.077 -3.627,7.503 -7.279,14.994 -10.957,22.471 -0.184,0.372 -0.666,0.843 -1.016,0.848 -3.675,0.053 -7.351,0.042 -11.114,0.039 -0.713,-0.001 -1.291,-0.578 -1.291,-1.291 l 0,-21.734 c 0,-0.713 -0.578,-1.291 -1.291,-1.291 l -10.116,0 c -0.713,0 -1.291,0.578 -1.291,1.291"
             style="fill:#000000;fill-opacity:1;fill-rule:nonzero;stroke:none"
             id="path3466"
             inkscape:connector-curvature="0" /></g><g
           id="g3468"
           transform="translate(697.8098,309.2963)"
           style="fill:#000000"><path
             d="m 1.6,0 -23.835,0 c -0.798,0 -1.444,-0.646 -1.444,-1.445 l 0,-0.013 c 0,-3.974 -0.001,-7.946 0,-11.919 0,-1.734 10e-4,-1.736 1.681,-1.736 l 27.007,0 0.167,0 c 0.798,0 1.445,-0.647 1.445,-1.445 l 0,-8.32 c 0,-0.798 -0.647,-1.444 -1.445,-1.444 l -40.006,0 c -0.798,0 -1.444,0.646 -1.444,1.444 l 0,58.472 c 0,0.798 0.646,1.445 1.444,1.445 l 38.441,0 c 0.799,0 1.445,-0.647 1.445,-1.445 l 0,-8.277 c 0,-0.797 -0.646,-1.444 -1.445,-1.444 l -25.767,0 c -0.798,0 -1.444,-0.647 -1.444,-1.445 l 0,-9.549 c 0,-0.798 0.646,-1.444 1.444,-1.444 l 23.756,0 c 0.798,0 1.444,-0.648 1.444,-1.446 l 0,-8.545 C 3.044,0.646 2.398,0 1.6,0"
             style="fill:#000000;fill-opacity:1;fill-rule:nonzero;stroke:none"
             id="path3470"
             inkscape:connector-curvature="0" /></g><g
           id="g3472"
           transform="translate(546.6978,344.3627)"
           style="fill:#000000"><path
             d="m 0,0 c 1.75,-0.039 2.424,0.062 3.095,-1.016 4.521,-7.267 9.088,-14.505 13.641,-21.752 0.112,-0.176 0.225,-0.351 0.417,-0.651 1.528,2.418 3.011,4.754 4.484,7.096 3.276,5.211 6.537,10.429 9.839,15.623 0.228,0.358 0.744,0.75 1.13,0.755 4.183,0.051 8.366,0.029 12.549,0.02 0.07,0 0.23,0.003 0.381,0.006 0.144,0.003 0.233,-0.154 0.157,-0.276 -0.645,-1.029 -1.316,-2.113 -1.912,-3.04 -6.532,-10.18 -13.076,-20.354 -19.582,-30.552 -0.356,-0.559 -0.558,-1.317 -0.562,-1.984 -0.037,-7.986 -0.024,-15.972 -0.024,-23.958 l 0,-0.292 c 0,-0.735 -0.596,-1.331 -1.331,-1.331 l -10.014,0 c -0.735,0 -1.331,0.596 -1.331,1.331 l 0,0.152 c 0,8.086 0.015,16.173 -0.027,24.259 -0.004,0.727 -0.218,1.439 -0.614,2.049 -6.98,10.75 -13.999,21.475 -21.008,32.206 -0.111,0.168 -0.217,0.341 -0.331,0.532 -0.227,0.379 0.029,0.865 0.469,0.892 L 0,0 Z"
             style="fill:#000000;fill-opacity:1;fill-rule:nonzero;stroke:none"
             id="path3474"
             inkscape:connector-curvature="0" /></g><g
           id="g3476"
           transform="translate(533.6221,294.1967)"
           style="fill:#000000"><path
             d="m 0,0 -21.689,0 c -0.817,0 -1.479,-0.662 -1.479,-1.479 l 0,-8.279 c 0,-0.817 0.662,-1.479 1.479,-1.479 l 21.689,0 c 1.01,0 1.829,0.819 1.829,1.829 l 0,7.58 C 1.829,-0.818 1.01,0 0,0"
             style="fill:#000000;fill-opacity:1;fill-rule:nonzero;stroke:none"
             id="path3478"
             inkscape:connector-curvature="0" /></g><g
           id="g3480"
           transform="translate(505.0303,296.0258)"
           style="fill:#000000"><path
             d="m 0,0 0,15.819 0,30.686 c 0,1.01 -0.818,1.828 -1.829,1.828 l -8.853,0 c -1.01,0 -1.829,-0.818 -1.829,-1.828 l 0,-57.742 c 0,-1.01 0.819,-1.829 1.829,-1.829 l 8.398,0 c 1.262,0 2.284,1.023 2.284,2.284 L 0,0 Z"
             style="fill:#000000;fill-opacity:1;fill-rule:nonzero;stroke:none"
             id="path3482"
             inkscape:connector-curvature="0" /></g><g
           id="g3484"
           transform="translate(533.4145,459.7792)"
           style="fill:#000000"><path
             d="M 0,0 C 21.718,-61.795 63.334,-96.37 130.249,-97.453 87.883,-102.167 48.234,-96.644 15.751,-66.757 -3.795,-48.773 -6.871,-25.521 0,0"
             style="fill:#000000;fill-opacity:1;fill-rule:nonzero;stroke:none"
             id="path3486"
             inkscape:connector-curvature="0" /></g><g
           id="g3488"
           transform="translate(568.5077,522.4672)"
           style="fill:#000000"><path
             d="m 0,0 c -12.613,-42.631 -17.635,-84.452 9.122,-122.285 -0.58,-0.401 0.579,0.4 0,0 -4.107,4.356 -8.414,8.543 -12.285,13.099 -12.824,15.097 -23.196,31.483 -26.027,51.639 C -32.469,-34.193 -22.163,-13.108 0,0"
             style="fill:#000000;fill-opacity:1;fill-rule:nonzero;stroke:none"
             id="path3490"
             inkscape:connector-curvature="0" /></g><g
           id="g3492"
           transform="translate(628.0053,558.9301)"
           style="fill:#000000"><path
             d="m 0,0 c -35.764,-35.433 -62.386,-74.326 -53.441,-129.386 -13.275,27.87 -15.4,66.422 3.939,89.728 C -35.634,-22.944 -18.145,-11.082 0,0"
             style="fill:#000000;fill-opacity:1;fill-rule:nonzero;stroke:none"
             id="path3494"
             inkscape:connector-curvature="0" /></g></g></g></g></svg>